<svg xmlns="http://www.w3.org/2000/svg" viewBox="0 0 1200 630" width="1200" height="630">
  <defs>
    <linearGradient id="teal" x1="0" y1="0" x2="1" y2="0">
      <stop offset="0%" stop-color="#115b6e"/>
      <stop offset="100%" stop-color="#1c7a8c"/>
    </linearGradient>
  </defs>

  <!-- Cream background -->
  <rect width="1200" height="630" fill="#f5f0e6"/>

  <!-- Subtle grid lines -->
  <line x1="0" y1="210" x2="750" y2="210" stroke="rgba(10,22,40,0.07)" stroke-width="1"/>
  <line x1="0" y1="420" x2="750" y2="420" stroke="rgba(10,22,40,0.07)" stroke-width="1"/>
  <line x1="750" y1="0" x2="750" y2="630" stroke="rgba(10,22,40,0.07)" stroke-width="1"/>

  <!-- Teal accent bar top -->
  <rect x="0" y="0" width="1200" height="4" fill="url(#teal)"/>

  <!-- Row 0: Archive -->
  <rect x="55" y="345" width="190" height="105" rx="10" fill="rgba(28,122,140,0.1)" stroke="rgba(28,122,140,0.4)" stroke-width="1.5"/>
  <text x="150" y="387" font-family="IBM Plex Mono, monospace" font-size="10" fill="rgba(28,122,140,0.9)" text-anchor="middle" letter-spacing="2">ARCHIVE</text>
  <text x="150" y="410" font-family="DM Sans, sans-serif" font-size="15" fill="#0a1628" text-anchor="middle">Institutional Repos</text>

  <rect x="265" y="345" width="190" height="105" rx="10" fill="rgba(28,122,140,0.18)" stroke="rgba(28,122,140,0.6)" stroke-width="1.5"/>
  <text x="360" y="387" font-family="IBM Plex Mono, monospace" font-size="10" fill="rgba(28,122,140,0.9)" text-anchor="middle" letter-spacing="2">ARCHIVE</text>
  <text x="360" y="410" font-family="DM Sans, sans-serif" font-size="15" fill="#0a1628" text-anchor="middle" font-weight="600">DIGITAL.CSIC</text>

  <rect x="475" y="345" width="190" height="105" rx="10" fill="rgba(28,122,140,0.1)" stroke="rgba(28,122,140,0.4)" stroke-width="1.5"/>
  <text x="570" y="387" font-family="IBM Plex Mono, monospace" font-size="10" fill="rgba(28,122,140,0.9)" text-anchor="middle" letter-spacing="2">ARCHIVE</text>
  <text x="570" y="410" font-family="DM Sans, sans-serif" font-size="15" fill="#0a1628" text-anchor="middle">Zenodo</text>

  <!-- Row 1: Review -->
  <rect x="55" y="215" width="130" height="95" rx="10" fill="rgba(91,138,58,0.09)" stroke="rgba(45,100,25,0.35)" stroke-width="1.5"/>
  <text x="120" y="265" font-family="DM Sans, sans-serif" font-size="12" fill="#0a1628" text-anchor="middle">Funding Agencies</text>

  <rect x="200" y="215" width="130" height="95" rx="10" fill="rgba(91,138,58,0.09)" stroke="rgba(45,100,25,0.35)" stroke-width="1.5"/>
  <text x="265" y="258" font-family="DM Sans, sans-serif" font-size="12" fill="#0a1628" text-anchor="middle">Eval Committees</text>

  <rect x="345" y="215" width="130" height="95" rx="10" fill="rgba(91,138,58,0.09)" stroke="rgba(45,100,25,0.35)" stroke-width="1.5"/>
  <text x="410" y="265" font-family="DM Sans, sans-serif" font-size="12" fill="#0a1628" text-anchor="middle">PCI</text>

  <rect x="490" y="215" width="175" height="95" rx="10" fill="rgba(91,138,58,0.09)" stroke="rgba(45,100,25,0.35)" stroke-width="1.5"/>
  <text x="577" y="258" font-family="DM Sans, sans-serif" font-size="12" fill="#0a1628" text-anchor="middle">Scientific Societies</text>

  <!-- Row 2: Aggregate -->
  <rect x="100" y="85" width="195" height="95" rx="10" fill="rgba(58,91,138,0.1)" stroke="rgba(25,55,110,0.35)" stroke-width="1.5"/>
  <text x="197" y="137" font-family="DM Sans, sans-serif" font-size="15" fill="#0a1628" text-anchor="middle">OpenAIRE</text>

  <rect x="315" y="85" width="195" height="95" rx="10" fill="rgba(58,91,138,0.1)" stroke="rgba(25,55,110,0.35)" stroke-width="1.5"/>
  <text x="412" y="137" font-family="DM Sans, sans-serif" font-size="15" fill="#0a1628" text-anchor="middle">GraspOS</text>

  <!-- Band labels -->
  <text x="28" y="400" font-family="IBM Plex Mono, monospace" font-size="9" fill="rgba(10,22,40,0.3)" text-anchor="middle" letter-spacing="2" transform="rotate(-90,28,400)">ARCHIVE</text>
  <text x="28" y="265" font-family="IBM Plex Mono, monospace" font-size="9" fill="rgba(10,22,40,0.3)" text-anchor="middle" letter-spacing="2" transform="rotate(-90,28,265)">REVIEW</text>
  <text x="28" y="135" font-family="IBM Plex Mono, monospace" font-size="9" fill="rgba(10,22,40,0.3)" text-anchor="middle" letter-spacing="2" transform="rotate(-90,28,135)">AGGREGATE</text>

  <!-- Policy sticky notes -->
  <rect x="790" y="110" width="180" height="85" rx="6" fill="#fde7b7" stroke="#c97a0a" stroke-width="1.5" transform="rotate(-2,880,152)"/>
  <text x="880" y="148" font-family="IBM Plex Mono, monospace" font-size="10" fill="#9a5e08" text-anchor="middle" letter-spacing="2" transform="rotate(-2,880,152)">MANDATE 01</text>
  <text x="880" y="170" font-family="DM Sans, sans-serif" font-size="13" fill="#5a3a04" text-anchor="middle" transform="rotate(-2,880,152)">Evaluate OA repos only</text>

  <rect x="800" y="230" width="180" height="85" rx="6" fill="#fde7b7" stroke="#c97a0a" stroke-width="1.5" transform="rotate(1.5,890,272)"/>
  <text x="890" y="268" font-family="IBM Plex Mono, monospace" font-size="10" fill="#9a5e08" text-anchor="middle" letter-spacing="2" transform="rotate(1.5,890,272)">MANDATE 02</text>
  <text x="890" y="290" font-family="DM Sans, sans-serif" font-size="13" fill="#5a3a04" text-anchor="middle" transform="rotate(1.5,890,272)">Mandate open reviews</text>

  <!-- Main title -->
  <text x="1000" y="390" font-family="Georgia, serif" font-size="40" font-style="italic" fill="#0a1628" text-anchor="middle">The pieces of</text>
  <text x="1000" y="438" font-family="Georgia, serif" font-size="40" font-style="italic" fill="#0a1628" text-anchor="middle">the puzzle</text>
  <text x="1000" y="486" font-family="Georgia, serif" font-size="40" font-style="italic" fill="#115b6e" text-anchor="middle">already exist.</text>

  <!-- Subtitle -->
  <text x="1000" y="535" font-family="IBM Plex Mono, monospace" font-size="12" fill="rgba(10,22,40,0.4)" text-anchor="middle" letter-spacing="1">CSIC Predoctoral Network · May 2026</text>

  <!-- Bottom rule -->
  <line x1="0" y1="610" x2="1200" y2="610" stroke="rgba(10,22,40,0.1)" stroke-width="1"/>
  <text x="60" y="624" font-family="IBM Plex Mono, monospace" font-size="11" fill="rgba(10,22,40,0.35)" letter-spacing="1">PANDELIS PERAKAKIS · OPEN SCHOLAR · UCM</text>
</svg>
